<?xml version="1.0" encoding="UTF-8" standalone="no"?>
<svg
   xmlns:dc="http://purl.org/dc/elements/1.1/"
   xmlns:cc="http://creativecommons.org/ns#"
   xmlns:rdf="http://www.w3.org/1999/02/22-rdf-syntax-ns#"
   xmlns:svg="http://www.w3.org/2000/svg"
   xmlns="http://www.w3.org/2000/svg"
   xmlns:sodipodi="http://sodipodi.sourceforge.net/DTD/sodipodi-0.dtd"
   xmlns:inkscape="http://www.inkscape.org/namespaces/inkscape"
   inkscape:version="1.0 (4035a4fb49, 2020-05-01)"
   sodipodi:docname="Potto.svg"
   id="svg8"
   viewBox="0 0 153.72 111.38"
   version="1.1"
   height="420.95"
   width="580.98">
  <g
     style="fill:#7dc9fc;fill-opacity:1"
     id="g6"
     transform="translate(-27.636,63.707)">
    <path
       style="fill:#7dc9fc;fill-opacity:1"
       id="path4"
       d="m 80.033,53.355 v 188.63 h 53.355 v -49.312 h 32.875 c 17.066,-1e-5 31.888,-2.7845 44.463,-8.3535 12.575,-5.7487 22.275,-13.832 29.102,-24.252 6.8266,-10.42 10.24,-22.726 10.24,-36.918 0,-14.192 -3.4136,-26.498 -10.24,-36.918 -6.8266,-10.599 -16.526,-18.683 -29.102,-24.252 -12.575,-5.7487 -27.396,-8.623 -44.463,-8.623 z m 290.69,0 a 94.315,94.315 0 0 0 -93.979,94.314 94.315,94.315 0 0 0 94.314,94.314 94.315,94.315 0 0 0 94.314,-94.314 94.315,94.315 0 0 0 -94.314,-94.314 94.315,94.315 0 0 0 -0.33594,0 z m 121.33,0 v 42.307 h 57.936 v 146.32 h 53.355 V 95.662 H 661.01 V 53.355 Z m -358.66,42.037 h 29.641 c 10.958,0 19.222,2.4249 24.791,7.2754 5.5691,4.8505 8.3535,11.678 8.3535,20.48 0,8.802 -2.7845,15.628 -8.3535,20.479 -5.569,4.6708 -13.833,7.0078 -24.791,7.0078 h -29.641 z m 237.67,11.316 a 40.96,40.96 0 0 1 40.961,40.961 40.96,40.96 0 0 1 -40.961,40.959 40.96,40.96 0 0 1 -40.959,-40.959 40.96,40.96 0 0 1 40.959,-40.961 z m -291.03,178.79 v 42.307 l 58.34,0.17579 v 146.32 h 53.355 v -146.32 l 58.34,-0.17579 v -42.307 z m 290.69,0 a 94.315,94.315 0 0 0 -93.979,94.314 94.315,94.315 0 0 0 94.314,94.314 94.315,94.315 0 0 0 94.314,-94.314 94.315,94.315 0 0 0 -94.314,-94.314 94.315,94.315 0 0 0 -0.33594,0 z m 0.33594,53.354 a 40.96,40.96 0 0 1 40.961,40.961 40.96,40.96 0 0 1 -40.961,40.959 40.96,40.96 0 0 1 -40.959,-40.959 40.96,40.96 0 0 1 40.959,-40.961 z"
       transform="matrix(0.26458,0,0,0.26458,6.4605,-77.824)" />
  </g>
</svg>
